<svg xmlns="http://www.w3.org/2000/svg" width="160" height="196" fill="none" viewBox="0 0 160 196"><path fill="#fff" d="M114.521 102.673C104.029 102.673 95.5208 94.1652 95.5208 83.6732C95.5208 73.1812 104.029 64.6732 114.521 64.6732C125.015 64.6732 133.521 73.1812 133.521 83.6732C133.521 94.1652 125.015 102.673 114.521 102.673ZM65.2274 126.673L80.2088 96.3212L95.1874 126.673H65.2274ZM45.8928 102.673C35.4008 102.673 26.8928 94.1652 26.8928 83.6732C26.8928 73.1812 35.4008 64.6732 45.8928 64.6732C56.3861 64.6732 64.8928 73.1812 64.8928 83.6732C64.8928 94.1652 56.3861 102.673 45.8928 102.673ZM80.2088 0.00652206C36.2101 0.00652206 0.542114 35.6759 0.542114 79.6732C0.542114 105.944 13.2634 129.239 32.8754 143.749V186.353C36.8861 187.941 41.0074 189.312 45.2088 190.499V166.673H53.2088V192.465C57.3594 193.353 61.5834 194.043 65.8754 194.52V166.007H73.8754V195.184C75.9741 195.285 78.0834 195.34 80.2088 195.34C82.3301 195.34 84.4408 195.285 86.5421 195.184V165.34H94.5421V194.52C98.8301 194.043 103.054 193.353 107.209 192.465V164.673H115.209V190.499C119.406 189.312 123.529 187.941 127.542 186.353V143.749C147.154 129.239 159.875 105.944 159.875 79.6732C159.875 35.6759 124.207 0.00652206 80.2088 0.00652206Z"/></svg>