<svg width="1878" height="198" viewBox="0 0 1878 198" fill="none" xmlns="http://www.w3.org/2000/svg">
    <path d="M144.599 65.8182C144.538 65.7014 144.474 65.5846 144.414 65.4667L144.387 65.4144C134.468 46.7163 114.951 34.0003 92.4983 34.0003C70.0457 34.0003 50.5322 46.7163 40.6133 65.4144C40.5414 65.5479 40.474 65.6847 40.401 65.8182C40.0525 66.4879 39.7152 67.1696 39.3899 67.8548H145.606C145.285 67.1696 144.947 66.4878 144.599 65.8182Z"
          fill="black"/>
    <path d="M39.3899 119.149C39.7152 119.835 40.0525 120.516 40.401 121.186C50.2523 140.106 69.8854 153.004 92.4983 153.004C115.111 153.004 134.748 140.106 144.599 121.186C144.947 120.516 145.285 119.835 145.606 119.149H39.3899Z"
          fill="black"/>
    <path d="M181.47 67.8547C181.418 67.6692 181.366 67.4876 181.314 67.3021C181.174 66.802 181.029 66.3059 180.877 65.8179C180.841 65.7049 180.805 65.588 180.768 65.4751C175.001 46.8942 163.277 30.2168 147.755 18.5123C131.7 6.40073 112.592 0 92.498 0C72.4077 0 53.3001 6.40073 37.2407 18.5124C21.7188 30.2168 9.99516 46.8942 4.22748 65.4711C4.19142 65.5881 4.15536 65.701 4.12317 65.818C3.97085 66.314 3.82241 66.8101 3.68602 67.2942C3.63381 67.4797 3.57773 67.6693 3.5295 67.8548C1.18723 76.1472 0 84.7741 0 93.502C0 102.23 1.18723 110.865 3.5295 119.149C3.57773 119.335 3.62971 119.516 3.68193 119.698C3.8223 120.194 3.97063 120.694 4.12306 121.186C4.15525 121.303 4.19131 121.416 4.22737 121.529C9.99505 140.11 21.7187 156.787 37.2406 168.492C53.3 180.599 72.4076 187 92.4979 187C112.588 187 131.696 180.599 147.755 168.492C163.277 156.787 175.001 140.11 180.768 121.533C180.804 121.416 180.84 121.303 180.873 121.186C181.029 120.698 181.173 120.202 181.31 119.714C181.366 119.524 181.418 119.339 181.466 119.149C183.812 110.857 185 102.234 185 93.5021C185 84.766 183.809 76.1389 181.47 67.8547ZM176.942 120.327C176.854 120.613 176.762 120.9 176.669 121.186C164.789 158.178 131.078 182.967 92.4979 182.967C53.9217 182.967 20.2107 158.183 8.32653 121.186C8.23428 120.9 8.14203 120.613 8.05376 120.323C7.92932 119.932 7.81306 119.544 7.6968 119.149C7.64459 118.964 7.58851 118.778 7.5363 118.589C5.19801 110.486 4.01078 102.044 4.01078 93.5019C4.01078 84.9595 5.1979 76.5181 7.54028 68.4032C7.59249 68.2217 7.64459 68.0361 7.70078 67.8547C7.81306 67.4635 7.92931 67.0723 8.05365 66.677C8.14181 66.3907 8.23406 66.1042 8.32642 65.8179C20.2105 28.8253 53.9216 4.03316 92.4978 4.03316C131.074 4.03316 164.789 28.8213 176.669 65.8179C176.762 66.1042 176.854 66.3907 176.942 66.681C177.066 67.0682 177.183 67.4595 177.295 67.8547C177.351 68.0402 177.407 68.2298 177.459 68.4193C179.802 76.514 180.989 84.9555 180.989 93.5019C180.989 102.048 179.802 110.49 177.455 118.597C177.403 118.782 177.351 118.968 177.295 119.149C177.183 119.544 177.066 119.936 176.942 120.327Z"
          fill="black"/>
    <path d="M92.4995 180.789C44.882 180.789 6.14211 141.631 6.14211 93.5007C6.14211 45.3699 44.882 6.21286 92.4995 6.21286C140.117 6.21286 178.857 45.3701 178.857 93.5007C178.857 141.631 140.117 180.789 92.4995 180.789ZM92.4995 9.43936C46.6513 9.43936 9.35083 47.1491 9.35083 93.5007C9.35083 139.852 46.6513 177.562 92.4995 177.562C138.348 177.562 175.648 139.852 175.648 93.5007C175.648 47.1491 138.348 9.43936 92.4995 9.43936Z"
          fill="black"/>
    <path d="M92.4995 149.297C62.0713 149.297 37.3165 124.267 37.3165 93.5007C37.3165 62.7345 62.0714 37.7043 92.4995 37.7043C122.927 37.7043 147.682 62.7344 147.682 93.5007C147.682 124.267 122.927 149.297 92.4995 149.297ZM92.4995 40.1242C63.3985 40.1242 39.7229 64.0689 39.7229 93.5007C39.7229 122.933 63.3985 146.877 92.4995 146.877C121.6 146.877 145.276 122.932 145.276 93.5007C145.276 64.0689 121.6 40.1242 92.4995 40.1242Z"
          fill="white"/>
    <path d="M160.015 99.6286C162.673 99.6286 164.828 97.462 164.828 94.7894C164.828 92.1167 162.673 89.9501 160.015 89.9501C157.357 89.9501 155.203 92.1167 155.203 94.7894C155.203 97.462 157.357 99.6286 160.015 99.6286Z"
          fill="#FEFEFE"/>
    <path fill-rule="evenodd" clip-rule="evenodd"
          d="M185 93.5015C185 93.9365 184.997 94.3725 184.99 94.8074C184.954 97.5938 184.794 100.368 184.516 103.123C184.428 103.99 184.327 104.853 184.217 105.715C183.628 110.264 182.71 114.754 181.466 119.149H3.52972C1.1869 110.865 0 102.23 0 93.5015C0 84.7743 1.1869 76.1472 3.52972 67.8548H181.47C182.71 72.2485 183.627 76.7378 184.216 81.2883C184.327 82.1503 184.427 83.0146 184.514 83.8811C184.794 86.6352 184.954 89.4093 184.99 92.1968C184.997 92.6317 185 93.0666 185 93.5015Z"
          fill="black"/>
    <path d="M92.7033 47.9995L90.8877 51.6988L86.8279 52.292L89.7656 55.1715L89.0721 59.2376L92.7033 57.3178L96.3346 59.2376L95.641 55.1715L98.5787 52.292L94.519 51.6988L92.7033 47.9995Z"
          fill="white"/>
    <path d="M72.6132 50.8991L71.276 53.6238L68.2858 54.0607L70.4495 56.1817L69.9387 59.1764L72.6132 57.7625L75.2878 59.1764L74.777 56.1817L76.9408 54.0607L73.9506 53.6238L72.6132 50.8991Z"
          fill="white"/>
    <path d="M112.387 50.8991L111.049 53.6238L108.059 54.0607L110.223 56.1817L109.712 59.1764L112.387 57.7625L115.061 59.1764L114.551 56.1817L116.714 54.0607L113.724 53.6238L112.387 50.8991Z"
          fill="white"/>
    <path d="M92.7033 126.647L90.8877 130.346L86.8279 130.94L89.7656 133.819L89.0721 137.885L92.7033 135.965L96.3346 137.885L95.641 133.819L98.5787 130.94L94.519 130.346L92.7033 126.647Z"
          fill="white"/>
    <path d="M72.6132 127.53L71.276 130.255L68.2858 130.692L70.4495 132.813L69.9387 135.807L72.6132 134.394L75.2878 135.807L74.777 132.813L76.9408 130.692L73.9506 130.255L72.6132 127.53Z"
          fill="white"/>
    <path d="M112.387 127.53L111.049 130.255L108.059 130.692L110.223 132.813L109.712 135.807L112.387 134.394L115.061 135.807L114.551 132.813L116.714 130.692L113.724 130.255L112.387 127.53Z"
          fill="white"/>
    <path d="M145.605 67.8547H39.3905C39.7155 67.1691 40.0523 66.4874 40.4013 65.8179C40.4735 65.6848 40.5417 65.5476 40.6139 65.4146H144.386L144.414 65.467L145.605 67.8547Z"
          fill="white"/>
    <path fill-rule="evenodd" clip-rule="evenodd"
          d="M39.3905 119.149H145.606C145.285 119.835 144.948 120.516 144.599 121.186H40.4012L39.3905 119.149Z"
          fill="white"/>
    <path fill-rule="evenodd" clip-rule="evenodd"
          d="M65.6225 97.7638V114.154H70.0653V102.437L70.1933 102.368H82.3648V97.7651H65.7972L65.6225 97.7638Z"
          fill="white"/>
    <path fill-rule="evenodd" clip-rule="evenodd"
          d="M90.6671 91.3113V107.889L98.804 107.897L98.9185 107.902C106.115 107.853 111.932 101.992 111.932 94.7717C111.932 87.5619 106.134 81.708 98.9545 81.6409L98.8837 81.6718L65.6235 81.676L65.6224 95.9092L65.673 95.9117L82.3446 95.9143L82.3325 91.3111L70.069 91.3068L70.0652 91.217V86.2063L70.1763 86.2037L98.9184 86.2052C103.6 86.2616 107.377 90.0823 107.377 94.7876C107.377 99.4674 103.638 103.273 98.9893 103.367L98.813 103.37H95.6441L95.2606 103.379V91.3113H90.6671Z"
          fill="white"/>
    <path fill-rule="evenodd" clip-rule="evenodd"
          d="M137.395 75.6437H132.239L152.333 109.705L155.203 104.924L137.395 75.6437Z" fill="white"/>
    <path fill-rule="evenodd" clip-rule="evenodd"
          d="M140.536 103.465H125.329V107.876H148.753L131.758 79.5979L111.154 114.118H117.373L131.758 88.7401L140.536 103.465Z"
          fill="white"/>
    <path fill-rule="evenodd" clip-rule="evenodd"
          d="M125.329 114.118L149.259 114.108L149.295 114.002L151.868 109.667L125.329 109.66V114.118Z" fill="white"/>
    <path fill-rule="evenodd" clip-rule="evenodd"
          d="M114.236 105.171L115.787 102.536L131.774 75.6056H126.618L117.295 90.9278C115.619 82.0352 107.866 75.5103 98.5257 75.4255L59.0747 75.4281L59.0733 114.115H63.5152L63.5164 79.8746L98.3483 79.8756L98.4898 79.8719C106.605 79.9484 113.162 86.5661 113.162 94.7161C113.162 102.879 106.587 109.504 98.4539 109.561L98.3483 109.558H88.3099L88.3111 109.522V91.2716H83.7175L83.6987 109.522V114.072H98.3484L98.5258 114.071C105.088 114.012 110.797 110.238 114.236 105.171Z"
          fill="white"/>
    <path d="M184.905 89.2458H159.592V86.6352H184.753L184.905 89.2458Z" fill="white"/>
    <path d="M184.914 97.5615L184.769 100.153H159.592V97.5615H184.914Z" fill="white"/>
    <path d="M25.4082 89.2458H0.0475653L0.199107 86.6352H25.4082V89.2458Z" fill="white"/>
    <path d="M25.4082 97.5615V100.153H0.183621L0.0387159 97.5615H25.4082Z" fill="white"/>
    <path d="M181.47 67.8547C181.418 67.6692 181.366 67.4876 181.314 67.3021C181.174 66.802 181.029 66.3059 180.877 65.8179C180.841 65.7049 180.805 65.588 180.768 65.4751C175.001 46.8942 163.277 30.2168 147.755 18.5123C131.7 6.40073 112.592 0 92.498 0C72.4077 0 53.3001 6.40073 37.2407 18.5124C21.7188 30.2168 9.99516 46.8942 4.22748 65.4711C4.19142 65.5881 4.15536 65.701 4.12317 65.818C3.97085 66.314 3.82241 66.8101 3.68602 67.2942C3.63381 67.4797 3.57773 67.6693 3.5295 67.8548C1.18723 76.1472 0 84.7741 0 93.502C0 102.23 1.18723 110.865 3.5295 119.149C3.57773 119.335 3.62971 119.516 3.68193 119.698C3.8223 120.194 3.97063 120.694 4.12306 121.186C4.15525 121.303 4.19131 121.416 4.22737 121.529C9.99505 140.11 21.7187 156.787 37.2406 168.492C53.3 180.599 72.4076 187 92.4979 187C112.588 187 131.696 180.599 147.755 168.492C163.277 156.787 175.001 140.11 180.768 121.533C180.804 121.416 180.84 121.303 180.873 121.186C181.029 120.698 181.173 120.202 181.31 119.714C181.366 119.524 181.418 119.339 181.466 119.149C183.812 110.857 185 102.234 185 93.5021C185 84.766 183.809 76.1389 181.47 67.8547ZM176.942 120.327C176.854 120.613 176.762 120.9 176.669 121.186C164.789 158.178 131.078 182.967 92.4979 182.967C53.9217 182.967 20.2107 158.183 8.32653 121.186C8.23428 120.9 8.14203 120.613 8.05376 120.323C7.92932 119.932 7.81306 119.544 7.6968 119.149C7.64459 118.964 7.58851 118.778 7.5363 118.589C5.19801 110.486 4.01078 102.044 4.01078 93.5019C4.01078 84.9595 5.1979 76.5181 7.54028 68.4032C7.59249 68.2217 7.64459 68.0361 7.70078 67.8547C7.81306 67.4635 7.92931 67.0723 8.05365 66.677C8.14181 66.3907 8.23406 66.1042 8.32642 65.8179C20.2105 28.8253 53.9216 4.03316 92.4978 4.03316C131.074 4.03316 164.789 28.8213 176.669 65.8179C176.762 66.1042 176.854 66.3907 176.942 66.681C177.066 67.0682 177.183 67.4595 177.295 67.8547C177.351 68.0402 177.407 68.2298 177.459 68.4193C179.802 76.514 180.989 84.9555 180.989 93.5019C180.989 102.048 179.802 110.49 177.455 118.597C177.403 118.782 177.351 118.968 177.295 119.149C177.183 119.544 177.066 119.936 176.942 120.327Z"
          fill="black"/>
    <path d="M26.7373 56.069C27.3097 54.6534 28.1977 52.8909 29.2746 51.1529C31.0696 48.2672 32.6708 46.753 34.3136 45.9371C36.0842 45.0525 37.8459 45.1334 39.3779 46.4256C41.0408 47.8312 41.5055 49.6197 41.3659 51.3407C41.1927 53.219 40.1952 55.4052 38.6586 57.9521C37.7395 59.4789 37.0579 60.5703 36.5736 61.3061C33.2947 59.5605 30.016 57.8148 26.7373 56.069ZM36.6688 57.2761C36.8668 57.0413 37.1188 56.6228 37.3508 56.2484C39.0383 53.5599 39.243 51.1885 37.0802 49.5332C35.2254 48.0896 32.9705 48.9745 31.1594 51.8533C30.694 52.5978 30.4445 53.1161 30.3151 53.432C32.4329 54.7134 34.5509 55.9948 36.6688 57.2761Z"
          fill="black"/>
    <path d="M47.2797 39.7902C45.8955 41.0388 44.5531 42.3547 43.2568 43.7379C43.9068 44.3607 44.5569 44.9835 45.207 45.6062C46.5979 44.1218 48.0442 42.7183 49.5399 41.3954C50.0016 41.9268 50.4633 42.4582 50.925 42.9896C48.6774 44.9775 46.5448 47.1538 44.549 49.5185C41.6812 47.0405 38.8134 44.5626 35.9457 42.0846C38.2202 39.3898 40.6453 36.9026 43.1981 34.6233C43.6622 35.1525 44.1264 35.6818 44.5905 36.211C43.0219 37.6116 41.5027 39.093 40.0389 40.6552C40.6077 41.2001 41.1765 41.745 41.7453 42.2899C43.0811 40.8646 44.4644 39.5086 45.8907 38.222C46.3537 38.7447 46.8167 39.2674 47.2797 39.7902Z"
          fill="black"/>
    <path d="M59.7808 36.0842C59.4099 36.5855 58.448 37.4681 57.0636 38.4162C53.1848 41.1009 49.7589 41.0171 47.5921 38.5639C45.0082 35.6732 46.6229 31.2872 50.7718 28.4833C52.3594 27.408 53.7389 26.8901 54.4121 26.7613C54.5495 27.4744 54.6933 28.1853 54.8433 28.8936C54.1142 29.0838 53.1505 29.4492 52.0952 30.1604C49.7146 31.7639 48.7175 34.1489 50.2859 36.136C51.7024 37.9365 53.9064 37.9794 56.2711 36.3793C57.0766 35.8346 57.8935 35.1165 58.3302 34.6116C58.8176 35.0991 59.3012 35.5901 59.7808 36.0842Z"
          fill="black"/>
    <path d="M66.0992 27.8292C64.4492 28.5251 62.8223 29.2884 61.2231 30.119C61.6379 30.9201 62.0527 31.7212 62.4675 32.5223C64.1835 31.631 65.9327 30.8204 67.7091 30.0906C67.9774 30.7424 68.2456 31.3941 68.5138 32.0459C65.8444 33.1427 63.2383 34.4277 60.7174 35.9012C58.8087 32.6155 56.8999 29.33 54.9912 26.0443C57.864 24.365 60.8306 22.8935 63.868 21.6297C64.1391 22.2803 64.4102 22.9309 64.6814 23.5815C62.8149 24.358 60.9759 25.2154 59.17 26.1534C59.5329 26.8544 59.8958 27.5554 60.2588 28.2564C61.9066 27.4004 63.5831 26.6139 65.2833 25.8969C65.5553 26.541 65.8272 27.1852 66.0992 27.8292Z"
          fill="black"/>
    <path d="M69.4104 31.6856C68.0172 28.1499 66.6241 24.6142 65.231 21.0786C66.5395 20.5643 67.8602 20.0882 69.1915 19.6499C70.676 20.6273 72.109 21.6474 73.4887 22.7061C74.6751 23.6195 75.8723 24.7786 76.7905 25.8779C76.8109 25.8729 76.8313 25.8679 76.8518 25.863C76.2887 24.451 75.849 22.9747 75.4359 21.3173C75.167 20.2398 74.8982 19.1623 74.6293 18.0848C75.696 17.8208 76.7677 17.5803 77.8434 17.3634C78.6015 21.0861 79.3595 24.8089 80.1176 28.5318C79.0738 28.7422 78.0346 28.9788 77.0011 29.2414C75.7072 28.0579 74.354 26.9119 72.9434 25.8075C71.7711 24.889 70.3915 23.7907 69.2448 22.7727C69.2251 22.7854 69.2055 22.7982 69.1858 22.8109C69.7642 24.2037 70.3275 25.7095 70.9329 27.4687C71.3053 28.5509 71.6776 29.6332 72.0502 30.7154C71.1642 31.0189 70.2841 31.3423 69.4104 31.6856Z"
          fill="black"/>
    <path d="M82.9111 18.7026C81.5475 18.8881 80.1885 19.1118 78.8357 19.3737C78.6974 18.6656 78.5589 17.9575 78.4204 17.2494C82.406 16.4778 86.4453 16.0283 90.4934 15.9008C90.5165 16.6218 90.5395 17.3428 90.5625 18.0637C89.1658 18.1078 87.7701 18.1912 86.3776 18.314C86.6514 21.379 86.9252 24.4439 87.199 27.5088C86.187 27.5981 85.1768 27.7113 84.1693 27.8484C83.7498 24.7998 83.3305 21.7512 82.9111 18.7026Z"
          fill="black"/>
    <path d="M91.0836 16.0368C92.2265 15.8732 93.9424 15.7607 95.8439 15.8352C98.1915 15.9284 99.8161 16.341 100.855 17.0948C101.722 17.7316 102.118 18.5864 101.985 19.6253C101.794 21.0659 100.349 21.8893 99.0758 22.1368C99.0743 22.1536 99.0728 22.1705 99.0713 22.1873C100.054 22.5978 100.525 23.4195 100.755 24.5008C101.044 25.8278 101.271 27.3573 101.468 27.8271C100.44 27.69 99.4098 27.5775 98.3775 27.49C98.1863 27.1514 97.9466 26.1988 97.6326 24.7698C97.3617 23.329 96.7632 22.8923 95.443 22.8243C95.1166 22.8123 94.7901 22.8027 94.4634 22.7953C94.4292 24.2884 94.3952 25.7813 94.361 27.2744C93.3589 27.2517 92.3564 27.2524 91.3545 27.2763C91.2642 23.5299 91.1739 19.7833 91.0836 16.0368ZM94.5059 20.9363C94.9435 20.9462 95.3808 20.9601 95.8182 20.978C97.4749 21.048 98.5075 20.4976 98.5916 19.5008C98.6789 18.4587 97.7623 17.8494 96.158 17.7604C95.3118 17.724 94.8297 17.765 94.5777 17.7925C94.5539 18.8404 94.5299 19.8883 94.5059 20.9363Z"
          fill="black"/>
    <path d="M105.667 25.5482C105.153 26.4424 104.653 27.3418 104.168 28.246C103.133 28.0629 102.094 27.9053 101.053 27.7732C102.894 24.1777 104.973 20.6562 107.283 17.2317C108.822 17.5277 110.353 17.8716 111.874 18.2637C112.507 22.3508 112.889 26.4285 113.022 30.4729C111.981 30.1301 110.932 29.8147 109.877 29.5268C109.801 28.4952 109.709 27.462 109.601 26.4279C108.298 26.095 106.986 25.8017 105.667 25.5482ZM109.623 24.4453C109.526 23.5908 109.419 22.7357 109.301 21.8801C109.197 21.161 109.122 20.2766 109.047 19.5668C109.032 19.5635 109.017 19.5601 109.002 19.5568C108.63 20.1669 108.224 20.9612 107.847 21.5553C107.388 22.2819 106.938 23.0123 106.499 23.7466C107.544 23.9551 108.586 24.1881 109.623 24.4453Z"
          fill="black"/>
    <path d="M117.365 19.9054C118.506 20.2946 119.639 20.7118 120.763 21.1571C119.626 24.0181 118.489 26.8791 117.353 29.7402C119.08 30.4248 120.782 31.1851 122.455 32.021C122.133 32.6668 121.811 33.3127 121.489 33.9586C118.947 32.6884 116.334 31.5988 113.669 30.6897C114.901 27.0949 116.133 23.5001 117.365 19.9054Z"
          fill="black"/>
    <path d="M130.513 25.8758C128.619 29.1699 126.725 32.464 124.831 35.7582C123.932 35.2383 123.023 34.7422 122.103 34.2699C123.836 30.8874 125.568 27.5051 127.3 24.1226C128.383 24.6789 129.455 25.2633 130.513 25.8758Z"
          fill="black"/>
    <path d="M126.115 34.903C129.354 33.7954 132.773 32.9307 136.343 32.3472C136.356 32.3291 136.369 32.311 136.383 32.2929C134.545 30.9206 132.653 29.6471 130.716 28.4724C131.082 27.8638 131.449 27.2553 131.815 26.6466C135.165 28.678 138.382 30.9963 141.428 33.6018C141.109 33.9811 140.79 34.3604 140.471 34.7397C136.9 35.0652 133.461 35.6776 130.182 36.5408C130.169 36.5594 130.156 36.5781 130.144 36.5967C132.003 37.8767 133.808 39.2639 135.549 40.758C135.091 41.3003 134.634 41.8427 134.176 42.385C131.408 40.0096 128.474 37.9138 125.411 36.098C125.646 35.6997 125.88 35.3013 126.115 34.903Z"
          fill="black"/>
    <path d="M144.387 45.7934C143.136 44.3449 141.837 42.9638 140.494 41.65C139.871 42.3001 139.248 42.9502 138.625 43.6004C140.065 45.0101 141.454 46.5006 142.784 48.0719C142.252 48.5322 141.721 48.9924 141.19 49.4527C139.192 47.0915 137.057 44.9187 134.807 42.9342C137.293 40.0657 139.779 37.1972 142.265 34.3287C144.828 36.5902 147.266 39.0593 149.553 41.7362C149.024 42.1991 148.495 42.6619 147.966 43.1247C146.56 41.4797 145.096 39.9155 143.58 38.432C143.035 39.0008 142.489 39.5696 141.944 40.1385C143.327 41.4922 144.666 42.9154 145.955 44.408C145.432 44.87 144.909 45.3317 144.387 45.7934Z"
          fill="black"/>
    <path d="M150.449 43.0448C151.47 44.0496 152.691 45.4808 153.849 47.1193C155.772 49.849 156.584 51.9772 156.733 53.8742C156.902 55.9253 156.191 57.6047 154.421 58.5372C152.5 59.5509 150.651 59.2367 149.101 58.4018C147.419 57.4704 145.767 55.6591 144.065 53.3132C143.046 51.9096 142.349 50.9117 141.893 50.2182C144.745 47.8272 147.597 45.4359 150.449 43.0448ZM145.449 51.7216C145.583 51.989 145.863 52.3739 146.112 52.7268C147.897 55.2818 150.034 56.4475 152.369 55.054C154.401 53.877 154.403 51.3585 152.487 48.6086C151.991 47.9011 151.622 47.4837 151.387 47.2499C149.408 48.7405 147.429 50.2311 145.449 51.7216Z"
          fill="black"/>
    <path d="M52.7783 88.2826C55.7635 91.2843 57.256 94.8473 57.256 98.9715C57.256 103.096 55.7635 106.659 52.7783 109.66C49.7932 112.636 46.25 114.124 42.1487 114.124H27.236V83.7799H42.1487C46.25 83.7799 49.7932 85.2808 52.7783 88.2826ZM50.9872 107.859C53.4532 105.38 54.6862 102.417 54.6862 98.9715C54.6862 95.526 53.4402 92.5633 50.9483 90.0836C48.4823 87.5778 45.5491 86.3249 42.1487 86.3249H29.7669V111.579H42.1487C45.5751 111.579 48.5213 110.339 50.9872 107.859ZM50.4811 90.5926C52.8173 92.9418 53.9854 95.7348 53.9854 98.9715C53.9854 102.208 52.8173 105.001 50.4811 107.35C48.1708 109.7 45.3934 110.874 42.1487 110.874H30.4678V87.0688H42.1487C45.3674 87.0688 48.1449 88.2434 50.4811 90.5926ZM51.4545 98.9715C51.4545 96.4657 50.52 94.2861 48.6511 92.4328C46.8081 90.5535 44.6406 89.6138 42.1487 89.6138H33.0376V108.29H42.1487C44.6666 108.29 46.847 107.376 48.69 105.549C50.533 103.696 51.4545 101.503 51.4545 98.9715Z"
          fill="white"/>
    <path d="M42.0872 132.36C44.2723 135.302 42.839 138.616 40.0228 140.731C36.3412 143.496 33.064 143.03 31.1045 140.392C29.022 137.588 30.1776 134.245 33.2411 131.945C36.4007 129.572 40.0252 129.583 42.0872 132.36ZM40.384 133.553C39.1939 131.95 36.8094 132.6 34.8724 134.055C32.798 135.613 31.6999 137.707 32.8181 139.213C33.9465 140.732 36.221 140.251 38.3503 138.652C40.2873 137.197 41.5432 135.114 40.384 133.553Z"
          fill="black"/>
    <path d="M50.4183 141.824L52.2531 143.587L46.9117 149.209C44.2469 152.014 41.6768 152.049 39.5197 149.976C37.375 147.916 37.3799 145.465 40.0565 142.648L45.4098 137.013L47.2446 138.775L41.7374 144.572C40.1385 146.255 40.072 147.598 41.0142 148.503C42.006 149.456 43.2885 149.329 44.9111 147.621L50.4183 141.824Z"
          fill="black"/>
    <path d="M52.3512 143.675L59.7337 148.914L58.4684 150.717L55.8067 148.828L49.4702 157.858L47.3969 156.387L53.7335 147.357L51.0858 145.478L52.3512 143.675Z"
          fill="black"/>
    <path d="M67.4191 153.238L66.0311 154.845C65.677 154.408 65.1627 153.907 64.3558 153.487C62.4225 152.48 60.1835 153.003 58.7164 155.85C57.344 158.513 57.9653 160.643 60.0813 161.746C60.7816 162.11 61.5985 162.361 62.1578 162.4L61.5388 164.388C60.9869 164.373 59.9248 164.111 58.7221 163.484C55.2056 161.652 54.4953 158.233 56.2937 154.743C58.4155 150.625 62.1218 149.915 65.2273 151.533C66.4909 152.192 67.1788 152.88 67.4191 153.238Z"
          fill="black"/>
    <path d="M72.5396 154.456C76.003 155.621 76.7041 159.166 75.5892 162.518C74.1317 166.899 71.1752 168.396 68.0696 167.351C64.7689 166.241 63.8235 162.832 65.0364 159.186C66.2873 155.426 69.2714 153.357 72.5396 154.456ZM71.8165 156.413C69.9304 155.778 68.3398 157.679 67.573 159.985C66.7517 162.454 67.0366 164.804 68.809 165.4C70.5975 166.002 72.1933 164.302 73.0363 161.768C73.8032 159.462 73.6539 157.031 71.8165 156.413Z"
          fill="black"/>
    <path d="M86.4609 157.68L89.5523 158.107L88.5058 171.345L86.1108 171.014L86.5705 165.874C86.7381 164.14 86.9425 162.01 87.1414 160.68L87.0905 160.673C86.5022 162.193 85.7886 163.869 85.1464 165.277L82.8242 170.369L80.9218 170.106L80.1918 164.68C79.9701 163.135 79.8051 161.303 79.7186 159.655L79.6676 159.648C79.4074 161.3 79.0565 163.236 78.75 164.846L77.8047 169.867L75.5116 169.55L78.1888 156.537L81.2972 156.967L82.0328 162.098C82.2405 163.745 82.4043 165.334 82.4878 166.877L82.5387 166.884C83.0451 165.457 83.6527 163.922 84.3089 162.412L86.4609 157.68Z"
          fill="black"/>
    <path d="M93.7925 169.021L98.6252 168.873L98.6897 171.01L91.3206 171.235L90.9208 157.983L98.0157 157.766L98.0802 159.903L93.5216 160.042L93.6183 163.248L97.9198 163.116L97.9827 165.201L93.6812 165.333L93.7925 169.021Z"
          fill="black"/>
    <path d="M104.584 165.784L99.9299 166.43L99.6908 164.688L104.344 164.042L104.584 165.784Z" fill="black"/>
    <path d="M107.536 169.747L104.177 157.158C105.027 156.75 106.159 156.337 107.401 156.002C109.521 155.43 111.082 155.491 112.377 156.088C113.852 156.761 114.986 158.151 115.604 160.465C116.337 163.213 115.82 165.066 115.078 166.212C114.199 167.574 112.565 168.569 110.346 169.167C109.17 169.484 108.204 169.656 107.536 169.747ZM107.082 158.266L109.477 167.242C109.739 167.225 110.103 167.126 110.434 167.037C112.774 166.424 113.944 164.555 113.046 161.191C112.273 158.294 110.483 157.241 108.215 157.854C107.701 157.992 107.334 158.145 107.082 158.266Z"
          fill="black"/>
    <path d="M119.708 166.203L114.424 154.245C115.161 153.746 116.24 153.131 117.415 152.606C118.935 151.927 122.09 150.744 123.524 153.99C124.178 155.471 123.718 156.978 122.785 157.923L122.806 157.971C123.798 157.924 124.63 158.533 125.455 159.636C126.434 160.916 127.387 162.225 127.824 162.577L125.443 163.641C125.117 163.371 124.353 162.449 123.424 161.11C122.421 159.69 121.72 159.418 120.623 159.908L119.839 160.258L122.011 165.174L119.708 166.203ZM117.445 154.838L119.074 158.525L120.029 158.098C121.346 157.51 121.804 156.381 121.295 155.231C120.606 153.671 119.314 153.89 118.468 154.268C117.951 154.499 117.605 154.691 117.445 154.838Z"
          fill="black"/>
    <path d="M131.937 160.079L129.746 161.366L123.097 149.917L125.288 148.631L131.937 160.079Z" fill="black"/>
    <path d="M134.555 149.319L132.291 143.703L134.475 142.063L139.147 155.101L136.825 156.844L125.874 148.52L128.1 146.849L132.782 150.649C134.032 151.669 135.291 152.703 136.465 153.823L136.506 153.792C135.796 152.345 135.148 150.81 134.555 149.319Z"
          fill="black"/>
    <path d="M144.005 148.03L147.437 144.606L148.935 146.123L143.7 151.344L134.415 141.931L139.455 136.905L140.952 138.422L137.714 141.652L139.96 143.929L143.015 140.881L144.476 142.362L141.421 145.41L144.005 148.03Z"
          fill="black"/>
    <path d="M144.451 130.42L145.825 128.568L156.395 136.493L154.878 138.539L148.816 137.542C147.31 137.294 145.543 136.937 144.06 136.514L144.019 136.569C145.387 137.465 146.902 138.537 148.785 139.949L152.029 142.381L150.655 144.233L140.085 136.308L141.725 134.096L147.674 135.073C149.152 135.3 150.885 135.674 152.303 136.07L152.323 136.043C150.884 135.157 149.345 134.089 147.626 132.801L144.451 130.42Z"
          fill="black"/>
    <path d="M260.576 25.336H256.416V13.56H217.888V25.336H213.728V9.4H260.576V25.336ZM255.264 25.336H251.04V18.936H241.952V49.464H248.48V53.688H237.728V14.776H255.264V25.336ZM236.576 53.688H225.888V49.464H232.352V18.936H223.264V25.336H219.104V14.776H236.576V53.688ZM248.48 59H225.888V54.84H248.48V59ZM311.081 59H296.425V54.84H306.857V13.56H296.425V9.4H311.081V59ZM305.705 33.592H269.417V14.776H278.697V18.936H273.577V29.432H301.545V18.936H296.425V14.776H305.705V33.592ZM305.705 53.688H296.425V49.464H301.545V38.968H273.577V49.464H278.697V53.688H269.417V34.808H305.705V53.688ZM278.697 59H264.041V9.4H278.697V13.56H268.201V54.84H278.697V59ZM358.189 25.016H354.029V18.936H324.077V29.432H333.933V22.584H338.093V33.592H319.917V14.776H358.189V25.016ZM343.469 45.816H339.245V22.584H343.469V45.816ZM363.565 59H314.541V9.4H363.565V25.016H359.405V13.56H318.765V54.84H359.405V43.448H363.565V59ZM358.189 53.688H319.917V34.808H338.093V45.816H333.933V38.968H324.077V49.464H354.029V43.448H358.189V53.688ZM299.424 102.52C309.237 112.333 314.144 123.981 314.144 137.464C314.144 150.947 309.237 162.595 299.424 172.408C289.611 182.136 277.963 187 264.48 187H215.456V87.8H264.48C277.963 87.8 289.611 92.7067 299.424 102.52ZM293.536 166.52C301.643 158.413 305.696 148.728 305.696 137.464C305.696 126.2 301.6 116.515 293.408 108.408C285.301 100.216 275.659 96.12 264.48 96.12H223.776V178.68H264.48C275.744 178.68 285.429 174.627 293.536 166.52ZM291.872 110.072C299.552 117.752 303.392 126.883 303.392 137.464C303.392 148.045 299.552 157.176 291.872 164.856C284.277 172.536 275.147 176.376 264.48 176.376H226.08V98.552H264.48C275.061 98.552 284.192 102.392 291.872 110.072ZM295.072 137.464C295.072 129.272 292 122.147 285.856 116.088C279.797 109.944 272.672 106.872 264.48 106.872H234.528V167.928H264.48C272.757 167.928 279.925 164.941 285.984 158.968C292.043 152.909 295.072 145.741 295.072 137.464ZM408.377 119.032H400.057V106.872H340.153V127.864H359.865V114.168H368.185V136.184H331.833V98.552H408.377V119.032ZM378.937 160.632H370.489V114.168H378.937V160.632ZM419.129 187H321.081V87.8H419.129V119.032H410.809V96.12H329.529V178.68H410.809V155.896H419.129V187ZM408.377 176.376H331.833V138.616H368.185V160.632H359.865V146.936H340.153V167.928H400.057V155.896H408.377V176.376ZM524.129 187H475.745C462.092 187 450.401 182.136 440.673 172.408C430.945 162.68 426.081 151.032 426.081 137.464C426.081 123.896 430.945 112.248 440.673 102.52C450.486 92.7067 462.177 87.8 475.745 87.8H524.129V121.464H515.809V96.12H475.745C464.481 96.12 454.796 100.216 446.689 108.408C438.582 116.515 434.529 126.2 434.529 137.464C434.529 148.813 438.54 158.541 446.561 166.648C454.668 174.669 464.396 178.68 475.745 178.68H515.809V153.336H524.129V187ZM513.377 176.376H475.745C465.078 176.376 455.905 172.579 448.225 164.984C440.63 157.304 436.833 148.131 436.833 137.464C436.833 126.797 440.673 117.667 448.353 110.072C456.033 102.392 465.164 98.552 475.745 98.552H513.377V121.464H505.057V106.872H475.745C467.468 106.872 460.3 109.901 454.241 115.96C448.182 122.019 445.153 129.187 445.153 137.464C445.153 145.741 448.14 152.909 454.113 158.968C460.172 164.941 467.382 167.928 475.745 167.928H505.057V153.336H513.377V176.376ZM618.377 119.032H610.057V106.872H550.153V127.864H569.865V114.168H578.185V136.184H541.833V98.552H618.377V119.032ZM588.937 160.632H580.489V114.168H588.937V160.632ZM629.129 187H531.081V87.8H629.129V119.032H620.809V96.12H539.529V178.68H620.809V155.896H629.129V187ZM618.377 176.376H541.833V138.616H578.185V160.632H569.865V146.936H550.153V167.928H610.057V155.896H618.377V176.376ZM728.497 187H702.385L655.153 112.248V167.928H664.369V176.376H646.833V98.552H656.433L706.865 178.68H720.177V96.12H700.209V87.8H728.497V187ZM717.745 176.376H708.273L657.713 96.12H644.401V178.68H664.369V187H636.081V87.8H662.321L709.425 162.552V106.872H700.209V98.552H717.745V176.376ZM829.152 119.672H820.832V96.12H743.776V119.672H735.456V87.8H829.152V119.672ZM818.528 119.672H810.08V106.872H791.904V167.928H804.96V176.376H783.456V98.552H818.528V119.672ZM781.152 176.376H759.776V167.928H772.704V106.872H754.528V119.672H746.208V98.552H781.152V176.376ZM804.96 187H759.776V178.68H804.96V187ZM922.481 98.552C922.054 108.877 918.044 117.752 910.449 125.176C902.854 132.6 893.894 136.312 883.569 136.312H846.833V98.552H922.481ZM933.233 187H899.953V178.68H924.913V177.528C924.913 168.227 921.926 159.779 915.953 152.184C909.98 144.504 902.47 139.597 893.425 137.464C902.47 135.245 909.98 130.339 915.953 122.744C921.926 115.149 924.913 106.701 924.913 97.4V96.12H844.401V178.68H864.625V187H836.081V87.8H933.233V97.4C933.233 105.336 931.398 112.845 927.729 119.928C924.145 127.011 919.153 132.856 912.753 137.464C919.068 142.072 924.06 147.917 927.729 155C931.398 161.997 933.233 169.507 933.233 177.528V187ZM922.481 176.376H899.953V167.928H912.625C910.406 161.784 906.652 156.749 901.361 152.824C896.07 148.899 890.14 146.936 883.569 146.936H855.281V167.928H864.625V176.376H846.705V138.616H883.569C893.894 138.616 902.854 142.328 910.449 149.752C918.044 157.091 922.054 165.965 922.481 176.376ZM912.625 106.872H855.281V127.864H883.569C890.14 127.864 896.07 125.901 901.361 121.976C906.652 118.051 910.406 113.016 912.625 106.872ZM1045.42 136.184H1020.33L1003.18 96.12H988.59L971.31 136.184H946.222V127.864H965.806L983.086 87.8H1008.69L1025.84 127.864H1045.42V136.184ZM1017.77 136.184H973.87L990.126 98.552H1001.65L1017.77 136.184ZM1051.31 187H1011.37V178.68H1038.64L1021.36 138.616H1045.42V146.936H1034.03L1051.31 187ZM1034.93 176.376H1011.37V167.928H1022.25L1013.29 146.936H978.35L969.262 167.928H980.142V176.376H956.59L972.846 138.616H1018.8L1034.93 176.376ZM980.142 187H940.206L957.486 146.936H946.222V138.616H970.286L953.006 178.68H980.142V187ZM1005.1 127.864L996.142 106.872H995.63L986.542 127.864H1005.1ZM1139.1 187H1058.21V87.8H1090.08V96.12H1066.53V178.68H1130.78V155.896H1139.1V187ZM1128.35 176.376H1068.96V98.552H1090.08V106.872H1077.28V167.928H1120.03V155.896H1128.35V176.376ZM1192.42 96.12H1145.96V87.8H1192.42V96.12ZM1192.42 176.376H1170.66V98.552H1192.42V106.872H1178.98V167.928H1192.42V176.376ZM1168.36 176.376H1145.96V167.928H1159.4V106.872H1145.96V98.552H1168.36V176.376ZM1192.42 187H1145.96V178.68H1192.42V187ZM1306.08 87.8L1241.19 167.928H1283.17V154.36H1291.49V176.376L1222.88 176.248L1287.78 96.12H1211.49V120.568H1203.17V87.8H1306.08ZM1302.24 187H1199.33L1264.23 106.872H1222.24V120.568H1213.92V98.552H1282.53L1217.64 178.68H1293.92V154.36H1302.24V187ZM1400.25 119.032H1391.93V106.872H1332.03V127.864H1351.74V114.168H1360.06V136.184H1323.71V98.552H1400.25V119.032ZM1370.81 160.632H1362.36V114.168H1370.81V160.632ZM1411 187H1312.96V87.8H1411V119.032H1402.68V96.12H1321.4V178.68H1402.68V155.896H1411V187ZM1400.25 176.376H1323.71V138.616H1360.06V160.632H1351.74V146.936H1332.03V167.928H1391.93V155.896H1400.25V176.376ZM1501.92 102.52C1511.74 112.333 1516.64 123.981 1516.64 137.464C1516.64 150.947 1511.74 162.595 1501.92 172.408C1492.11 182.136 1480.46 187 1466.98 187H1417.96V87.8H1466.98C1480.46 87.8 1492.11 92.7067 1501.92 102.52ZM1496.04 166.52C1504.14 158.413 1508.2 148.728 1508.2 137.464C1508.2 126.2 1504.1 116.515 1495.91 108.408C1487.8 100.216 1478.16 96.12 1466.98 96.12H1426.28V178.68H1466.98C1478.24 178.68 1487.93 174.627 1496.04 166.52ZM1494.37 110.072C1502.05 117.752 1505.89 126.883 1505.89 137.464C1505.89 148.045 1502.05 157.176 1494.37 164.856C1486.78 172.536 1477.65 176.376 1466.98 176.376H1428.58V98.552H1466.98C1477.56 98.552 1486.69 102.392 1494.37 110.072ZM1497.57 137.464C1497.57 129.272 1494.5 122.147 1488.36 116.088C1482.3 109.944 1475.17 106.872 1466.98 106.872H1437.03V167.928H1466.98C1475.26 167.928 1482.43 164.941 1488.48 158.968C1494.54 152.909 1497.57 145.741 1497.57 137.464ZM1639.25 119.032H1630.93V106.872H1571.03V127.864H1590.74V114.168H1599.06V136.184H1562.71V98.552H1639.25V119.032ZM1609.81 160.632H1601.36V114.168H1609.81V160.632ZM1650 119.032H1641.68V96.12H1560.4V178.68H1578.07V187H1551.96V87.8H1650V119.032ZM1599.06 160.632H1590.74V146.936H1571.03V167.928H1578.07V176.376H1562.71V138.616H1599.06V160.632ZM1740.92 102.52C1750.74 112.333 1755.64 123.981 1755.64 137.464C1755.64 150.947 1750.74 162.595 1740.92 172.408C1731.11 182.136 1719.46 187 1705.98 187H1656.96V87.8H1705.98C1719.46 87.8 1731.11 92.7067 1740.92 102.52ZM1735.04 166.52C1743.14 158.413 1747.2 148.728 1747.2 137.464C1747.2 126.2 1743.1 116.515 1734.91 108.408C1726.8 100.216 1717.16 96.12 1705.98 96.12H1665.28V178.68H1705.98C1717.24 178.68 1726.93 174.627 1735.04 166.52ZM1733.37 110.072C1741.05 117.752 1744.89 126.883 1744.89 137.464C1744.89 148.045 1741.05 157.176 1733.37 164.856C1725.78 172.536 1716.65 176.376 1705.98 176.376H1667.58V98.552H1705.98C1716.56 98.552 1725.69 102.392 1733.37 110.072ZM1736.57 137.464C1736.57 129.272 1733.5 122.147 1727.36 116.088C1721.3 109.944 1714.17 106.872 1705.98 106.872H1676.03V167.928H1705.98C1714.26 167.928 1721.43 164.941 1727.48 158.968C1733.54 152.909 1736.57 145.741 1736.57 137.464ZM1867.8 136.184H1842.71L1825.56 96.12H1810.97L1793.69 136.184H1768.6V127.864H1788.18L1805.46 87.8H1831.06L1848.21 127.864H1867.8V136.184ZM1840.15 136.184H1796.25L1812.5 98.552H1824.02L1840.15 136.184ZM1873.69 187H1833.75V178.68H1861.01L1843.73 138.616H1867.8V146.936H1856.41L1873.69 187ZM1857.3 176.376H1833.75V167.928H1844.63L1835.67 146.936H1800.73L1791.64 167.928H1802.52V176.376H1778.97L1795.22 138.616H1841.17L1857.3 176.376ZM1802.52 187H1762.58L1779.86 146.936H1768.6V138.616H1792.66L1775.38 178.68H1802.52V187ZM1827.48 127.864L1818.52 106.872H1818.01L1808.92 127.864H1827.48Z"
          fill="black"/>
</svg>
